<svg height="511pt" viewBox="0 -18 511.99941 511" width="511pt" xmlns="http://www.w3.org/2000/svg"><path fill="#A63232" d="m502.523438 365.042969-180.914063-325.851563c-13.398437-24.226562-37.921875-38.691406-65.609375-38.691406s-52.210938 14.464844-65.597656 38.667969l-180.9375 325.898437c-12.976563 23.46875-12.589844 51.265625 1.03125 74.363282 13.621094 23.097656 37.761718 36.886718 64.578125 36.886718h361.855469c26.8125 0 50.953124-13.789062 64.574218-36.886718 13.621094-23.097657 14.007813-50.894532 1.019532-74.386719zm-26.847657 59.152343c-8.175781 13.859376-22.660156 22.132813-38.746093 22.132813h-361.855469c-16.089844 0-30.574219-8.273437-38.746094-22.132813-8.171875-13.859374-8.40625-30.535156-.632813-44.59375l180.9375-325.898437c8.039063-14.539063 22.753907-23.214844 39.367188-23.214844 16.609375 0 31.328125 8.675781 39.378906 23.234375l180.914063 325.855469c7.785156 14.078125 7.554687 30.757813-.617188 44.617187zm0 0"/><path fill="#A63232" d="m211.019531 311.382812h89.960938v-224.910156h-89.960938zm29.984375-194.921874h29.988282v164.933593h-29.988282zm0 0"/><path fill="#A63232" d="m256 341.371094c-24.804688 0-44.980469 20.175781-44.980469 44.980468 0 24.800782 20.175781 44.980469 44.980469 44.980469s44.980469-20.179687 44.980469-44.980469c0-24.804687-20.175781-44.980468-44.980469-44.980468zm0 59.972656c-8.269531 0-14.996094-6.726562-14.996094-14.992188 0-8.269531 6.726563-14.996093 14.996094-14.996093 8.265625 0 14.992188 6.726562 14.992188 14.996093 0 8.265626-6.726563 14.992188-14.992188 14.992188zm0 0"/></svg>